<?xml version="1.0" standalone="no"?>
<!DOCTYPE svg PUBLIC "-//W3C//DTD SVG 20010904//EN"
 "http://www.w3.org/TR/2001/REC-SVG-20010904/DTD/svg10.dtd">
<svg version="1.0" xmlns="http://www.w3.org/2000/svg"
 width="465.000000pt" height="520.000000pt" viewBox="0 0 465.000000 520.000000"
 preserveAspectRatio="xMidYMid meet">

<g transform="translate(0.000000,520.000000) scale(0.100000,-0.100000)"
fill="#000000" stroke="none">
<path d="M20 2880 l0 -2310 2305 0 2305 0 0 2310 0 2310 -2305 0 -2305 0 0
-2310z m2601 2170 c872 -128 1585 -768 1803 -1620 19 -75 42 -187 50 -250 19
-134 22 -415 5 -552 -34 -286 -131 -589 -266 -823 -445 -775 -1287 -1203
-2166 -1100 -483 56 -912 259 -1262 597 -548 527 -780 1275 -629 2026 65 326
232 678 446 939 354 434 875 722 1433 792 137 17 439 12 586 -9z"/>
<path d="M2550 445 c0 -33 2 -35 35 -35 33 0 35 2 35 35 0 33 -2 35 -35 35
-33 0 -35 -2 -35 -35z"/>
<path d="M3760 445 c0 -33 2 -35 35 -35 33 0 35 2 35 35 0 33 -2 35 -35 35
-33 0 -35 -2 -35 -35z"/>
<path d="M30 290 l0 -180 35 0 35 0 0 65 0 65 49 0 c73 0 108 10 136 38 21 20
25 34 25 79 0 45 -4 58 -25 77 -31 29 -64 36 -171 36 l-84 0 0 -180z m192 103
c47 -42 3 -97 -74 -91 -42 3 -43 4 -46 42 -2 21 -1 44 2 52 8 20 94 18 118 -3z"/>
<path d="M350 290 l0 -180 35 0 35 0 0 86 c0 99 10 124 48 124 45 0 52 -16 52
-117 l0 -93 35 0 35 0 0 109 c0 126 -10 148 -73 158 -30 4 -45 1 -68 -16 l-29
-22 0 66 0 65 -35 0 -35 0 0 -180z"/>
<path d="M1430 290 l0 -180 35 0 35 0 1 148 0 147 41 -147 41 -148 43 0 c42 0
43 1 55 43 6 23 24 87 39 142 l29 100 0 -142 1 -143 35 0 35 0 0 180 0 180
-60 0 -59 0 -10 -37 c-5 -21 -22 -84 -37 -140 l-27 -103 -28 108 c-16 59 -32
121 -37 137 -8 29 -11 30 -70 33 l-62 3 0 -181z"/>
<path d="M2950 291 l0 -181 35 0 35 0 0 65 0 65 55 0 c103 0 155 39 155 117 0
33 -7 50 -29 75 -29 33 -29 33 -140 36 l-111 4 0 -181z m190 99 c44 -44 8 -90
-70 -90 l-50 0 0 55 0 55 50 0 c37 0 55 -5 70 -20z"/>
<path d="M960 405 c0 -28 -4 -35 -20 -35 -15 0 -20 -7 -20 -26 0 -17 6 -28 20
-31 18 -5 20 -14 20 -80 0 -65 3 -77 25 -98 16 -17 35 -25 60 -25 32 0 35 2
35 29 0 23 -5 30 -22 33 -21 3 -23 9 -26 71 -3 66 -3 67 23 67 21 0 25 5 25
30 0 25 -4 30 -25 30 -22 0 -25 4 -25 35 0 33 -2 35 -35 35 -33 0 -35 -2 -35
-35z"/>
<path d="M2190 405 c0 -28 -4 -35 -20 -35 -16 0 -20 -7 -20 -30 0 -23 4 -30
20 -30 18 0 20 -7 20 -77 0 -43 4 -83 8 -89 12 -19 49 -34 81 -34 28 0 31 3
31 29 0 23 -5 30 -22 33 -21 3 -23 9 -26 71 -3 66 -3 67 23 67 21 0 25 5 25
30 0 25 -4 30 -25 30 -22 0 -25 4 -25 35 0 33 -2 35 -35 35 -33 0 -35 -2 -35
-35z"/>
<path d="M4480 405 c0 -28 -4 -35 -20 -35 -15 0 -20 -7 -20 -26 0 -17 6 -28
20 -31 18 -5 20 -14 20 -80 0 -65 3 -77 25 -98 16 -17 35 -25 60 -25 32 0 35
2 35 29 0 23 -5 30 -22 33 -21 3 -23 9 -26 71 -3 66 -3 67 23 67 21 0 25 5 25
30 0 25 -4 30 -25 30 -22 0 -25 4 -25 35 0 33 -2 35 -35 35 -33 0 -35 -2 -35
-35z"/>
<path d="M702 363 c-89 -44 -87 -211 3 -249 70 -29 152 -4 182 56 16 32 16
108 0 140 -31 62 -118 87 -185 53z m104 -47 c28 -21 28 -131 0 -152 -50 -36
-96 1 -96 76 0 75 46 112 96 76z"/>
<path d="M1180 362 c-100 -50 -90 -214 16 -251 123 -43 220 70 165 193 -31 71
-107 96 -181 58z m102 -49 c24 -22 25 -118 1 -145 -33 -36 -79 -20 -93 33 -12
43 1 114 23 122 24 10 51 7 69 -10z"/>
<path d="M1944 371 c-26 -12 -54 -49 -54 -73 0 -29 62 -25 75 5 11 25 49 34
71 17 22 -19 17 -39 -13 -46 -115 -26 -143 -44 -143 -92 0 -65 70 -100 136
-69 20 10 36 12 39 7 3 -6 20 -10 36 -10 l31 0 -4 110 c-3 97 -6 112 -25 131
-24 25 -111 36 -149 20z m106 -161 c0 -44 -63 -77 -89 -46 -17 20 -3 45 33 55
48 14 56 13 56 -9z"/>
<path d="M2480 373 c-8 -3 -23 -12 -32 -21 -16 -14 -18 -13 -18 1 0 13 -9 17
-35 17 l-35 0 0 -130 0 -130 35 0 35 0 0 80 c0 89 17 120 65 120 22 0 25 4 25
35 0 35 -7 40 -40 28z"/>
<path d="M3383 370 c-12 -5 -26 -17 -32 -27 -10 -16 -10 -16 -11 5 0 18 -5 22
-35 22 l-35 0 0 -130 0 -130 35 0 35 0 0 80 c0 89 17 120 65 120 22 0 25 4 25
35 0 37 -8 41 -47 25z"/>
<path d="M3520 362 c-100 -50 -90 -214 16 -251 123 -43 220 70 165 193 -31 71
-107 96 -181 58z m102 -49 c24 -22 25 -118 1 -145 -33 -36 -79 -20 -93 33 -12
43 1 114 23 122 24 10 51 7 69 -10z"/>
<path d="M3943 365 c-17 -7 -39 -27 -47 -44 -22 -42 -21 -128 3 -167 39 -64
152 -72 204 -14 15 16 27 35 27 40 0 18 -60 10 -80 -10 -11 -11 -31 -20 -43
-20 -27 0 -57 28 -57 53 0 15 13 17 95 17 l96 0 -7 38 c-11 58 -32 92 -69 108
-43 17 -81 17 -122 -1z m101 -51 c31 -31 20 -44 -39 -44 -59 0 -68 10 -38 42
20 22 56 23 77 2z"/>
<path d="M4240 363 c-68 -35 -92 -138 -47 -204 52 -77 156 -80 211 -6 18 24
19 29 6 37 -26 17 -50 11 -75 -17 -23 -27 -25 -27 -52 -13 -25 14 -28 21 -31
77 -3 57 -1 63 23 79 23 15 27 15 50 0 14 -9 25 -24 25 -32 0 -11 5 -14 16
-10 9 3 25 6 35 6 16 0 19 4 14 23 -20 65 -106 95 -175 60z"/>
<path d="M2550 240 l0 -130 35 0 35 0 0 130 0 130 -35 0 -35 0 0 -130z"/>
<path d="M2666 358 c5 -7 23 -35 42 -61 l34 -48 -46 -69 -46 -70 40 0 c36 0
42 4 62 40 13 22 26 40 29 40 3 0 15 -18 28 -40 20 -36 26 -40 62 -40 45 0 46
-5 -12 81 l-38 56 39 54 c22 30 40 57 40 62 0 4 -16 7 -35 7 -30 0 -39 -5 -56
-35 -23 -39 -32 -38 -54 6 -13 25 -21 29 -56 29 -29 0 -38 -3 -33 -12z"/>
<path d="M3760 224 c0 -137 -1 -146 -20 -151 -14 -4 -20 -14 -20 -34 0 -26 3
-29 35 -29 22 0 43 8 55 20 18 18 20 33 20 180 l0 160 -35 0 -35 0 0 -146z"/>
</g>
</svg>
